<?xml version="1.0" encoding="utf-8"?>
<!-- Generator: Adobe Illustrator 22.0.1, SVG Export Plug-In . SVG Version: 6.00 Build 0)  -->
<svg version="1.1" id="Layer_1" xmlns="http://www.w3.org/2000/svg" xmlns:xlink="http://www.w3.org/1999/xlink" x="0px" y="0px"
	 viewBox="0 0 180 28" style="enable-background:new 0 0 180 28;" xml:space="preserve">
<style type="text/css">
	.st0{fill:#FFFFFF;}
</style>
<g id="Layer_1_1_">
</g>
<g id="Layer_2_1_">
	<g>
		<path class="st0" d="M14,0C6.3,0,0,6.3,0,14s6.3,14,14,14s14-6.3,14-14S21.7,0,14,0z M8.6,9.4c-0.7,1.5-0.8,3.2-0.2,4.7
			c0.1,0.3,0.1,0.7-0.1,0.9C7.4,16.2,7,17.6,7,19c0,0.6-0.4,1-1,1s-1-0.4-1-1c0-1.7,0.5-3.3,1.3-4.7c-0.6-1.9-0.4-3.9,0.4-5.7
			C7,8.1,7.6,7.9,8.1,8.1C8.6,8.3,8.8,8.9,8.6,9.4z M18,20c-0.6,0-1-0.4-1-1c0-1.7-1.3-3-3-3s-3,1.3-3,3c0,0.6-0.4,1-1,1s-1-0.4-1-1
			c0-1.7,0.9-3.2,2.2-4.1C10.5,14.1,10,13.1,10,12c0-2.2,1.8-4,4-4s4,1.8,4,4c0,1.1-0.5,2.1-1.2,2.9c1.3,0.9,2.2,2.4,2.2,4.1
			C19,19.6,18.6,20,18,20z M22,20c-0.6,0-1-0.4-1-1c0-1.4-0.4-2.8-1.3-4c-0.2-0.3-0.2-0.6-0.1-0.9c0.6-1.5,0.5-3.2-0.2-4.7
			c-0.2-0.5,0-1.1,0.5-1.3s1.1,0,1.3,0.5c0.8,1.8,1,3.8,0.4,5.7c0.9,1.4,1.3,3,1.3,4.7C23,19.6,22.6,20,22,20z"/>
		<circle class="st0" cx="14" cy="12" r="2"/>
	</g>
	<g>
		<path class="st0" d="M44.7,18.4c-0.3,0.5-0.8,0.9-1.4,1.3c-0.6,0.3-1.3,0.5-2.2,0.5s-1.6-0.1-2.3-0.4s-1.2-0.7-1.6-1.3
			c-0.4-0.6-0.6-1.2-0.7-1.9h2.6c0.1,0.5,0.3,0.9,0.6,1.2c0.3,0.3,0.8,0.5,1.3,0.5s0.9-0.1,1.2-0.4s0.4-0.6,0.4-1s-0.1-0.7-0.3-0.9
			c-0.2-0.2-0.5-0.4-0.8-0.6s-0.8-0.3-1.4-0.5c-0.8-0.3-1.4-0.5-1.9-0.7s-0.9-0.6-1.2-1.1s-0.5-1.1-0.5-1.8c0-1,0.4-1.9,1.1-2.5
			c0.8-0.6,1.7-0.9,3-0.9s2.3,0.3,3.1,0.9s1.2,1.4,1.3,2.5h-2.6c-0.1-0.4-0.3-0.8-0.5-1.1c-0.3-0.3-0.7-0.4-1.2-0.4
			c-0.4,0-0.8,0.1-1.1,0.4s-0.4,0.6-0.4,1s0.1,0.7,0.3,0.9s0.5,0.4,0.8,0.6c0.3,0.1,0.8,0.3,1.3,0.5c0.8,0.3,1.4,0.5,1.9,0.8
			c0.5,0.2,0.9,0.6,1.2,1.1s0.5,1.1,0.5,1.9C45.2,17.3,45,17.9,44.7,18.4z"/>
		<path class="st0" d="M54.8,10.9c0.6,0.4,1.1,1,1.5,1.7s0.5,1.6,0.5,2.6s-0.2,1.9-0.5,2.6c-0.4,0.7-0.9,1.3-1.5,1.7
			c-0.6,0.4-1.4,0.6-2.2,0.6s-1.5-0.2-2.1-0.6s-1-0.9-1.2-1.5v6.5H47v-14h2.4v2c0.2-0.6,0.6-1.2,1.2-1.5c0.6-0.4,1.3-0.6,2.1-0.6
			S54.2,10.5,54.8,10.9z M50.1,13.2c-0.5,0.5-0.7,1.2-0.7,2s0.2,1.5,0.7,2s1.1,0.7,1.8,0.7c0.8,0,1.4-0.2,1.8-0.7
			c0.5-0.5,0.7-1.2,0.7-2c0-0.9-0.2-1.5-0.7-2s-1.1-0.7-1.8-0.7C51.2,12.5,50.6,12.7,50.1,13.2z"/>
		<path class="st0" d="M65.5,10.9c0.7,0.4,1.3,1,1.7,1.7c0.4,0.7,0.6,1.6,0.6,2.6s-0.2,1.9-0.6,2.6s-1,1.3-1.7,1.7
			c-0.7,0.4-1.6,0.6-2.5,0.6s-1.8-0.2-2.5-0.6s-1.3-1-1.7-1.7s-0.6-1.6-0.6-2.6s0.2-1.9,0.6-2.6c0.4-0.7,1-1.3,1.7-1.7
			s1.6-0.6,2.5-0.6C63.9,10.4,64.8,10.5,65.5,10.9z M61.3,13.2c-0.5,0.5-0.7,1.2-0.7,2.1s0.2,1.6,0.7,2.1s1,0.7,1.7,0.7
			s1.2-0.2,1.7-0.7s0.7-1.2,0.7-2.1s-0.2-1.6-0.7-2.1s-1-0.7-1.7-0.7C62.3,12.5,61.8,12.7,61.3,13.2z"/>
		<path class="st0" d="M74.7,17.9V20h-1.3c-1.1,0-1.9-0.3-2.5-0.8S70,17.8,70,16.6v-4.1h-1.3v-2H70V8.1h2.4v2.4h2.1v2h-2.1v4.2
			c0,0.5,0.1,0.8,0.3,1c0.2,0.2,0.5,0.3,0.9,0.3h1.1V17.9z"/>
		<path class="st0" d="M76.6,6.8c0.3-0.2,0.6-0.4,1.1-0.4c0.4,0,0.8,0.1,1.1,0.4c0.3,0.2,0.4,0.6,0.4,1c0,0.4-0.1,0.7-0.4,0.9
			C78.5,8.9,78.1,9,77.7,9s-0.8-0.1-1.1-0.4c-0.3-0.2-0.4-0.6-0.4-0.9C76.2,7.4,76.3,7,76.6,6.8z M78.9,10.5V20h-2.4v-9.5H78.9z"/>
		<path class="st0" d="M84.3,9.1c-0.3,0.3-0.4,0.7-0.4,1.3l0,0h1.9v2h-1.9V20h-2.4v-7.5h-1.2v-2h1.2v-0.2c0-1.1,0.3-2,1-2.6
			c0.5-0.7,1.5-1,2.8-1c0.2,0,0.4,0,0.5,0v2.1C85.1,8.8,84.6,8.9,84.3,9.1z"/>
		<path class="st0" d="M88.8,10.5l2.6,6.5l2.4-6.5h2.7l-5.8,14.1H88l2.1-4.8l-4-9.2L88.8,10.5L88.8,10.5z"/>
		<path class="st0" d="M109.6,7.9v1.9h-3.4V20h-2.4V9.8h-3.3V7.9H109.6z"/>
		<path class="st0" d="M117.9,10.9c0.7,0.4,1.3,1,1.7,1.7c0.4,0.7,0.6,1.6,0.6,2.6s-0.2,1.9-0.6,2.6s-1,1.3-1.7,1.7
			c-0.7,0.4-1.6,0.6-2.5,0.6s-1.8-0.2-2.5-0.6s-1.3-1-1.7-1.7c-0.4-0.7-0.6-1.6-0.6-2.6s0.2-1.9,0.6-2.6c0.4-0.7,1-1.3,1.7-1.7
			s1.6-0.6,2.5-0.6C116.3,10.4,117.2,10.5,117.9,10.9z M113.7,13.2c-0.5,0.5-0.7,1.2-0.7,2.1s0.2,1.6,0.7,2.1s1,0.7,1.7,0.7
			s1.2-0.2,1.7-0.7s0.7-1.2,0.7-2.1s-0.2-1.6-0.7-2.1s-1-0.7-1.7-0.7C114.7,12.5,114.1,12.7,113.7,13.2z"/>
		<path class="st0" d="M127.8,10.9c0.6,0.4,1,0.9,1.2,1.5v-2h2.4V20c0,0.9-0.2,1.7-0.5,2.4c-0.3,0.7-0.9,1.3-1.6,1.7
			c-0.7,0.4-1.5,0.6-2.5,0.6c-1.4,0-2.5-0.3-3.3-1s-1.4-1.5-1.5-2.7h2.4c0.1,0.5,0.4,0.9,0.8,1.1c0.4,0.3,0.9,0.4,1.5,0.4
			c0.7,0,1.3-0.2,1.7-0.6c0.4-0.4,0.7-1.1,0.7-1.9v-2c-0.2,0.6-0.6,1.2-1.2,1.5s-1.3,0.6-2.1,0.6c-0.8,0-1.5-0.2-2.2-0.6
			c-0.6-0.4-1.1-1-1.5-1.7s-0.5-1.6-0.5-2.6s0.2-1.9,0.5-2.6c0.4-0.7,0.9-1.3,1.5-1.7s1.4-0.6,2.2-0.6
			C126.5,10.4,127.2,10.5,127.8,10.9z M124.7,13.2c-0.5,0.5-0.7,1.2-0.7,2c0,0.9,0.2,1.5,0.7,2s1.1,0.7,1.8,0.7
			c0.7,0,1.3-0.2,1.8-0.7s0.7-1.2,0.7-2c0-0.8-0.2-1.5-0.7-2s-1.1-0.7-1.8-0.7C125.7,12.5,125.1,12.7,124.7,13.2z"/>
		<path class="st0" d="M142.5,15.7h-7c0,0.8,0.3,1.5,0.7,1.9s1,0.6,1.6,0.6s1-0.1,1.4-0.4s0.6-0.6,0.7-1.1h2.6
			c-0.1,0.7-0.4,1.3-0.8,1.8c-0.4,0.5-0.9,0.9-1.6,1.2s-1.4,0.4-2.2,0.4c-0.9,0-1.8-0.2-2.5-0.6s-1.3-1-1.7-1.7s-0.6-1.6-0.6-2.6
			s0.2-1.9,0.6-2.6c0.4-0.7,1-1.3,1.7-1.7s1.5-0.6,2.5-0.6c0.9,0,1.8,0.2,2.5,0.6c0.7,0.4,1.2,0.9,1.6,1.6s0.6,1.5,0.6,2.3
			C142.6,15.1,142.5,15.4,142.5,15.7z M139.5,12.9c-0.4-0.4-1-0.6-1.6-0.6c-0.7,0-1.2,0.2-1.7,0.6c-0.4,0.4-0.7,1-0.7,1.8h4.6
			C140.2,13.9,140,13.3,139.5,12.9z"/>
		<path class="st0" d="M149.4,17.9V20h-1.3c-1.1,0-1.9-0.3-2.5-0.8s-0.9-1.4-0.9-2.6v-4.1h-1.3v-2h1.3V8.1h2.4v2.4h2.1v2h-2.1v4.2
			c0,0.5,0.1,0.8,0.3,1s0.5,0.3,0.9,0.3h1.1V17.9z"/>
		<path class="st0" d="M159.4,11.4c0.7,0.7,1,1.7,1,3V20H158v-5.3c0-0.8-0.2-1.3-0.6-1.8c-0.4-0.4-0.9-0.6-1.6-0.6
			c-0.7,0-1.2,0.2-1.6,0.7c-0.4,0.4-0.6,1.1-0.6,1.9V20h-2.4V7.3h2.4v5.1c0.3-0.6,0.7-1.1,1.2-1.5c0.6-0.4,1.2-0.5,2-0.5
			C157.9,10.3,158.8,10.7,159.4,11.4z"/>
		<path class="st0" d="M171.4,15.7h-7c0,0.8,0.3,1.5,0.7,1.9s1,0.6,1.6,0.6s1-0.1,1.4-0.4s0.6-0.6,0.7-1.1h2.6
			c-0.1,0.7-0.4,1.3-0.8,1.8c-0.4,0.5-0.9,0.9-1.6,1.2s-1.4,0.4-2.2,0.4c-0.9,0-1.8-0.2-2.5-0.6s-1.3-1-1.7-1.7s-0.6-1.6-0.6-2.6
			s0.2-1.9,0.6-2.6c0.4-0.7,1-1.3,1.7-1.7s1.5-0.6,2.5-0.6c0.9,0,1.8,0.2,2.5,0.6c0.7,0.4,1.2,0.9,1.6,1.6s0.6,1.5,0.6,2.3
			C171.5,15.1,171.5,15.4,171.4,15.7z M168.4,12.9c-0.4-0.4-1-0.6-1.6-0.6c-0.7,0-1.2,0.2-1.7,0.6c-0.4,0.4-0.7,1-0.7,1.8h4.6
			C169.1,13.9,168.9,13.3,168.4,12.9z"/>
		<path class="st0" d="M177,10.9c0.6-0.3,1.2-0.5,2-0.5V13h-0.7c-1.8,0-2.7,0.8-2.7,2.5V20h-2.4v-9.5h2.4v1.8
			C176,11.7,176.5,11.2,177,10.9z"/>
	</g>
</g>
</svg>
