<?xml version="1.0" encoding="UTF-8"?>
<svg width="16px" height="16px" viewBox="0 0 16 16" version="1.1" xmlns="http://www.w3.org/2000/svg" xmlns:xlink="http://www.w3.org/1999/xlink">
    <!-- Generator: Sketch 49.1 (51147) - http://www.bohemiancoding.com/sketch -->
    <title>heart-filled</title>
    <desc>Created with Sketch.</desc>
    <defs></defs>
    <g id="heart-filled" stroke="none" stroke-width="1" fill="none" fill-rule="evenodd">
        <g id="Page-1" transform="translate(0.000000, 2.000000)" fill="#FF8269">
            <path d="M11.8290301,0.0361 C10.6650301,0.0361 9.49203012,0.5021 8.62203012,1.3731 L8.00003012,1.9941 L7.37803012,1.3731 C6.50803012,0.5021 5.33503012,0.0361 4.17103012,0.0361 C3.23903012,0.0361 2.31303012,0.3351 1.55303012,0.9631 C-0.408969876,2.5831 -0.511969876,5.4931 1.24403012,7.2491 L1.99403012,8.0001 L7.29303012,13.2991 C7.48803012,13.4941 7.74403012,13.5921 8.00003012,13.5921 C8.25603012,13.5921 8.51203012,13.4941 8.70703012,13.2991 L14.0060301,8.0001 L14.7560301,7.2491 C16.5120301,5.4931 16.4090301,2.5831 14.4470301,0.9631 C13.6860301,0.3351 12.7610301,0.0361 11.8290301,0.0361" id="Path"></path>
        </g>
    </g>
</svg>