<?xml version="1.0" encoding="UTF-8"?>
<svg width="16px" height="16px" viewBox="0 0 16 16" version="1.1" xmlns="http://www.w3.org/2000/svg" xmlns:xlink="http://www.w3.org/1999/xlink">
    <!-- Generator: Sketch 49.1 (51147) - http://www.bohemiancoding.com/sketch -->
    <title>heart</title>
    <desc>Created with Sketch.</desc>
    <defs></defs>
    <g id="heart" stroke="none" stroke-width="1" fill="none" fill-rule="evenodd">
        <g id="Page-1" transform="translate(0.000000, 2.000000)" fill="#fff">
            <path d="M11.8291,0.0361 C10.6651,0.0361 9.4921,0.5021 8.6221,1.3731 L8.0001,1.9941 L7.3781,1.3731 C6.5081,0.5021 5.3351,0.0361 4.1711,0.0361 C3.2391,0.0361 2.3131,0.3351 1.5531,0.9631 C-0.4089,2.5831 -0.5119,5.4931 1.2441,7.2491 L1.9941,8.0001 L7.2931,13.2991 C7.4881,13.4941 7.7441,13.5921 8.0001,13.5921 C8.2561,13.5921 8.5121,13.4941 8.7071,13.2991 L14.0061,8.0001 L14.7561,7.2491 C16.5121,5.4931 16.4091,2.5831 14.4471,0.9631 C13.6861,0.3351 12.7611,0.0361 11.8291,0.0361 M11.8291,1.0361 C12.5721,1.0361 13.2581,1.2771 13.8101,1.7341 C14.5311,2.3291 14.9521,3.1661 14.9961,4.0911 C15.0401,5.0041 14.6941,5.8961 14.0491,6.5421 L13.2991,7.2931 L8.0001,12.5921 L2.7011,7.2931 L1.9511,6.5421 C1.3061,5.8961 0.9601,5.0031 1.0041,4.0911 C1.0481,3.1661 1.4691,2.3291 2.1891,1.7341 C2.7421,1.2771 3.4281,1.0361 4.1711,1.0361 C5.0971,1.0361 6.0081,1.4171 6.6711,2.0801 L7.2931,2.7011 L8.0001,3.4091 L8.7071,2.7011 L9.3291,2.0801 C9.9921,1.4171 10.9031,1.0361 11.8291,1.0361" id="Fill-3"></path>
        </g>
    </g>
</svg>
