<?xml version="1.0" encoding="utf-8"?>
<!-- Generator: Adobe Illustrator 22.0.1, SVG Export Plug-In . SVG Version: 6.00 Build 0)  -->
<svg version="1.1" xmlns="http://www.w3.org/2000/svg" xmlns:xlink="http://www.w3.org/1999/xlink" x="0px" y="0px"
	 viewBox="0 0 16 16" style="enable-background:new 0 0 16 16;" xml:space="preserve">
<style type="text/css">
	.st0{fill:#FFFFFF;}
	.st1{fill:none;stroke:#FFFFFF;stroke-linecap:round;stroke-miterlimit:10;}
	.st2{fill:none;stroke:#FFFFFF;stroke-miterlimit:10;}
	.st3{fill:none;stroke:#FFFFFF;stroke-linecap:square;stroke-linejoin:round;stroke-miterlimit:10;}
	.st4{fill:none;stroke:#FFFFFF;stroke-linecap:round;stroke-linejoin:round;stroke-miterlimit:10;}
	.st5{display:none;}
	.st6{display:inline;}
	.st7{display:inline;fill:none;stroke:#000000;stroke-width:2;stroke-linecap:round;stroke-miterlimit:10;}
	.st8{display:inline;fill:#FFFFFF;}
	.st9{display:inline;fill:none;stroke:#000000;stroke-width:2;stroke-miterlimit:10;}
</style>
<g id="line">
	<g>
		<path class="st0" d="M7,13c0.6,0,1,0.4,1,1s-0.4,1-1,1s-1-0.4-1-1S6.4,13,7,13 M7,12c-1.1,0-2,0.9-2,2s0.9,2,2,2s2-0.9,2-2
			S8.1,12,7,12L7,12z"/>
	</g>
	<g>
		<path class="st0" d="M13,11c0.6,0,1,0.4,1,1s-0.4,1-1,1s-1-0.4-1-1S12.4,11,13,11 M13,10c-1.1,0-2,0.9-2,2s0.9,2,2,2s2-0.9,2-2
			S14.1,10,13,10L13,10z"/>
	</g>
	<polyline class="st3" points="8.5,13.5 8.5,7.5 14.5,5.5 14.5,11.5 	"/>
	<path class="st4" d="M1.5,8c0-4.1,3.4-7.5,7.5-7.5"/>
	<path class="st4" d="M4.5,8c0-2.5,2-4.5,4.5-4.5"/>
</g>
<g id="filled" class="st5">
</g>
<g id="old" class="st5">
</g>
</svg>
