<?xml version="1.0" encoding="utf-8"?>
<!-- Generator: Adobe Illustrator 22.0.1, SVG Export Plug-In . SVG Version: 6.00 Build 0)  -->
<svg version="1.1" xmlns="http://www.w3.org/2000/svg" xmlns:xlink="http://www.w3.org/1999/xlink" x="0px" y="0px"
	 viewBox="0 0 16 16" style="enable-background:new 0 0 16 16;" xml:space="preserve">
<style type="text/css">
	.st0{fill:#FFFFFF;}
	.st1{fill:none;stroke:#FFFFFF;stroke-linecap:round;stroke-miterlimit:10;}
	.st2{fill:none;stroke:#FFFFFF;stroke-miterlimit:10;}
	.st3{fill:none;stroke:#FFFFFF;stroke-linecap:square;stroke-linejoin:round;stroke-miterlimit:10;}
	.st4{fill:none;stroke:#FFFFFF;stroke-linecap:round;stroke-linejoin:round;stroke-miterlimit:10;}
	.st5{display:none;}
	.st6{display:inline;}
	.st7{display:inline;fill:none;stroke:#000000;stroke-width:2;stroke-linecap:round;stroke-miterlimit:10;}
	.st8{display:inline;fill:#FFFFFF;}
	.st9{display:inline;fill:none;stroke:#000000;stroke-width:2;stroke-miterlimit:10;}
</style>
<g id="line">
	<g>
		<path class="st0" d="M11.8,3c0.7,0,1.4,0.2,2,0.7C14.5,4.3,15,5.2,15,6.1C15,7,14.7,7.9,14,8.5l-0.8,0.8L8,14.6L2.7,9.3L2,8.5
			C1.3,7.9,1,7,1,6.1c0-0.9,0.5-1.8,1.2-2.4C2.7,3.3,3.4,3,4.2,3c0.9,0,1.8,0.4,2.5,1l0.6,0.6L8,5.4l0.7-0.7l0.6-0.6
			C10,3.4,10.9,3,11.8,3 M11.8,2c-1.2,0-2.3,0.5-3.2,1.3L8,4L7.4,3.4C6.5,2.5,5.3,2,4.2,2C3.2,2,2.3,2.3,1.6,3
			c-2,1.6-2.1,4.5-0.3,6.3L2,10l5.3,5.3c0.2,0.2,0.5,0.3,0.7,0.3s0.5-0.1,0.7-0.3L14,10l0.8-0.8c1.8-1.8,1.7-4.7-0.3-6.3
			C13.7,2.3,12.8,2,11.8,2L11.8,2z"/>
	</g>
</g>
<g id="filled" class="st5">
</g>
<g id="old" class="st5">
</g>
</svg>
