<?xml version="1.0" encoding="utf-8"?>
<!-- Generator: Adobe Illustrator 22.0.1, SVG Export Plug-In . SVG Version: 6.00 Build 0)  -->
<svg version="1.1" xmlns="http://www.w3.org/2000/svg" xmlns:xlink="http://www.w3.org/1999/xlink" x="0px" y="0px"
	 viewBox="0 0 16 16" style="enable-background:new 0 0 16 16;" xml:space="preserve">
<style type="text/css">
	.st0{fill:#FFFFFF;}
	.st1{fill:none;stroke:#FFFFFF;stroke-linecap:round;stroke-miterlimit:10;}
	.st2{fill:none;stroke:#FFFFFF;stroke-miterlimit:10;}
	.st3{fill:none;stroke:#FFFFFF;stroke-linecap:square;stroke-linejoin:round;stroke-miterlimit:10;}
	.st4{fill:none;stroke:#FFFFFF;stroke-linecap:round;stroke-linejoin:round;stroke-miterlimit:10;}
	.st5{display:none;}
	.st6{display:inline;}
	.st7{display:inline;fill:none;stroke:#000000;stroke-width:2;stroke-linecap:round;stroke-miterlimit:10;}
	.st8{display:inline;fill:#FFFFFF;}
	.st9{display:inline;fill:none;stroke:#000000;stroke-width:2;stroke-miterlimit:10;}
</style>
<g id="line">
	<path class="st2" d="M13.9,8c0-0.4,0-0.7-0.1-1l1.4-1.1c-0.3-1.1-0.9-2.2-1.7-3l-1.6,0.6c-0.5-0.5-1.1-0.8-1.8-1L9.7,0.7
		C9.2,0.6,8.6,0.5,8,0.5S6.8,0.6,6.3,0.7L6,2.4C5.3,2.7,4.7,3,4.2,3.5L2.6,2.9c-0.8,0.8-1.4,1.9-1.7,3L2.2,7C2.1,7.3,2.1,7.6,2.1,8
		s0,0.7,0.1,1l-1.4,1.1c0.3,1.1,0.9,2.2,1.7,3l1.6-0.6c0.5,0.5,1.1,0.8,1.8,1l0.3,1.7c0.6,0.1,1.1,0.2,1.7,0.2s1.2-0.1,1.7-0.2
		l0.3-1.7c0.7-0.2,1.3-0.6,1.8-1l1.6,0.6c0.8-0.8,1.4-1.9,1.7-3L13.8,9C13.9,8.7,13.9,8.4,13.9,8z"/>
	<circle class="st2" cx="8" cy="8" r="2"/>
</g>
<g id="filled" class="st5">
</g>
<g id="old" class="st5">
</g>
</svg>
