<?xml version="1.0" encoding="UTF-8"?>
<svg width="32px" height="32px" viewBox="0 0 32 32" version="1.1" xmlns="http://www.w3.org/2000/svg" xmlns:xlink="http://www.w3.org/1999/xlink">
    <!-- Generator: Sketch 49.1 (51147) - http://www.bohemiancoding.com/sketch -->
    <title>next_big</title>
    <desc>Created with Sketch.</desc>
    <defs></defs>
    <g id="next_big" stroke="none" stroke-width="1" fill="none" fill-rule="evenodd">
        <g id="Page-1" transform="translate(1.000000, 1.000000)" fill="#FFFFFF">
            <g id="Group-6">
                <path d="M0,2.6543 L0,27.3453 C0,28.9253 1.747,29.8823 3.078,29.0303 L22.368,16.6843 C23.597,15.8973 23.597,14.1023 22.368,13.3153 L3.078,0.9693 C1.747,0.1183 0,1.0743 0,2.6543" id="Fill-2"></path>
                <path d="M28,29 C26.896,29 26,28.104 26,27 L26,3 C26,1.896 26.896,1 28,1 C29.104,1 30,1.896 30,3 L30,27 C30,28.104 29.104,29 28,29" id="Fill-4"></path>
            </g>
        </g>
    </g>
</svg>