<?xml version="1.0" encoding="UTF-8"?>
<svg width="32px" height="32px" viewBox="0 0 32 32" version="1.1" xmlns="http://www.w3.org/2000/svg" xmlns:xlink="http://www.w3.org/1999/xlink">
    <!-- Generator: Sketch 49.1 (51147) - http://www.bohemiancoding.com/sketch -->
    <title>pause_big</title>
    <desc>Created with Sketch.</desc>
    <defs></defs>
    <g id="pause_big" stroke="none" stroke-width="1" fill="none" fill-rule="evenodd">
        <g id="Page-1" transform="translate(4.000000, 2.000000)" fill="#FFFFFF">
            <g id="Group-6">
                <path d="M2,0 L6,0 C7.104,0 8,0.896 8,2 L8,26 C8,27.104 7.104,28 6,28 L2,28 C0.896,28 0,27.104 0,26 L0,2 C0,0.896 0.896,0 2,0" id="Fill-2"></path>
                <path d="M18,0 L22,0 C23.104,0 24,0.896 24,2 L24,26 C24,27.104 23.104,28 22,28 L18,28 C16.896,28 16,27.104 16,26 L16,2 C16,0.896 16.896,0 18,0" id="Fill-4"></path>
            </g>
        </g>
    </g>
</svg>