<?xml version="1.0" encoding="UTF-8"?>
<svg width="32px" height="32px" viewBox="0 0 32 32" version="1.1" xmlns="http://www.w3.org/2000/svg" xmlns:xlink="http://www.w3.org/1999/xlink">
    <!-- Generator: Sketch 49.1 (51147) - http://www.bohemiancoding.com/sketch -->
    <title>prev_big</title>
    <desc>Created with Sketch.</desc>
    <defs></defs>
    <g id="prev_big" stroke="none" stroke-width="1" fill="none" fill-rule="evenodd">
        <g id="Page-1" transform="translate(1.000000, 1.000000)" fill="#FFFFFF">
            <g id="Group-6">
                <path d="M30,27.3457 L30,2.6547 C30,1.0747 28.253,0.1177 26.922,0.9697 L7.632,13.3157 C6.403,14.1027 6.403,15.8977 7.632,16.6847 L26.922,29.0307 C28.253,29.8817 30,28.9257 30,27.3457" id="Fill-2"></path>
                <path d="M2,1 C3.104,1 4,1.896 4,3 L4,27 C4,28.104 3.104,29 2,29 C0.896,29 0,28.104 0,27 L0,3 C0,1.896 0.896,1 2,1" id="Fill-4"></path>
            </g>
        </g>
    </g>
</svg>