<?xml version="1.0" encoding="UTF-8"?>
<svg width="16px" height="16px" viewBox="0 0 16 16" version="1.1" xmlns="http://www.w3.org/2000/svg" xmlns:xlink="http://www.w3.org/1999/xlink">
    <!-- Generator: Sketch 49.1 (51147) - http://www.bohemiancoding.com/sketch -->
    <title>qr</title>
    <desc>Created with Sketch.</desc>
    <defs>
        <polygon id="path-1" points="0 16 16 16 16 0 0 0"></polygon>
    </defs>
    <g id="qr" stroke="none" stroke-width="1" fill="none" fill-rule="evenodd">
        <g id="Page-1">
            <path d="M4.5,5.5 L1.5,5.5 C0.947,5.5 0.5,5.053 0.5,4.5 L0.5,1.5 C0.5,0.947 0.947,0.5 1.5,0.5 L4.5,0.5 C5.053,0.5 5.5,0.947 5.5,1.5 L5.5,4.5 C5.5,5.053 5.053,5.5 4.5,5.5 Z" id="Stroke-1" stroke="#FFFFFF"></path>
            <path d="M14.5,5.5 L11.5,5.5 C10.947,5.5 10.5,5.053 10.5,4.5 L10.5,1.5 C10.5,0.947 10.947,0.5 11.5,0.5 L14.5,0.5 C15.053,0.5 15.5,0.947 15.5,1.5 L15.5,4.5 C15.5,5.053 15.053,5.5 14.5,5.5 Z" id="Stroke-3" stroke="#FFFFFF"></path>
            <path d="M4.5,15.5 L1.5,15.5 C0.947,15.5 0.5,15.053 0.5,14.5 L0.5,11.5 C0.5,10.947 0.947,10.5 1.5,10.5 L4.5,10.5 C5.053,10.5 5.5,10.947 5.5,11.5 L5.5,14.5 C5.5,15.053 5.053,15.5 4.5,15.5 Z" id="Stroke-5" stroke="#FFFFFF"></path>
            <mask id="mask-2" fill="white">
                <use xlink:href="#path-1"></use>
            </mask>
            <g id="Clip-8"></g>
            <polygon id="Fill-7" fill="#FFFFFF" mask="url(#mask-2)" points="2 14 4 14 4 12 2 12"></polygon>
            <polygon id="Fill-9" fill="#FFFFFF" mask="url(#mask-2)" points="2 4 4 4 4 2 2 2"></polygon>
            <polygon id="Fill-10" fill="#FFFFFF" mask="url(#mask-2)" points="12 4 14 4 14 2 12 2"></polygon>
            <polygon id="Fill-11" fill="#FFFFFF" mask="url(#mask-2)" points="15 16 16 16 16 15 15 15"></polygon>
            <polygon id="Fill-12" fill="#FFFFFF" mask="url(#mask-2)" points="13 16 14 16 14 15 13 15"></polygon>
            <polygon id="Fill-13" fill="#FFFFFF" mask="url(#mask-2)" points="11 16 12 16 12 15 11 15"></polygon>
            <polygon id="Fill-14" fill="#FFFFFF" mask="url(#mask-2)" points="9 16 10 16 10 15 9 15"></polygon>
            <polygon id="Fill-15" fill="#FFFFFF" mask="url(#mask-2)" points="14 15 15 15 15 14 14 14"></polygon>
            <polygon id="Fill-16" fill="#FFFFFF" mask="url(#mask-2)" points="12 15 13 15 13 14 12 14"></polygon>
            <polygon id="Fill-17" fill="#FFFFFF" mask="url(#mask-2)" points="10 15 11 15 11 14 10 14"></polygon>
            <polygon id="Fill-18" fill="#FFFFFF" mask="url(#mask-2)" points="8 15 9 15 9 14 8 14"></polygon>
            <polygon id="Fill-19" fill="#FFFFFF" mask="url(#mask-2)" points="15 14 16 14 16 13 15 13"></polygon>
            <polygon id="Fill-20" fill="#FFFFFF" mask="url(#mask-2)" points="13 14 14 14 14 13 13 13"></polygon>
            <polygon id="Fill-21" fill="#FFFFFF" mask="url(#mask-2)" points="11 14 12 14 12 13 11 13"></polygon>
            <polygon id="Fill-22" fill="#FFFFFF" mask="url(#mask-2)" points="9 14 10 14 10 13 9 13"></polygon>
            <polygon id="Fill-23" fill="#FFFFFF" mask="url(#mask-2)" points="14 13 15 13 15 12 14 12"></polygon>
            <polygon id="Fill-24" fill="#FFFFFF" mask="url(#mask-2)" points="12 13 13 13 13 12 12 12"></polygon>
            <polygon id="Fill-25" fill="#FFFFFF" mask="url(#mask-2)" points="10 13 11 13 11 12 10 12"></polygon>
            <polygon id="Fill-26" fill="#FFFFFF" mask="url(#mask-2)" points="8 13 9 13 9 12 8 12"></polygon>
            <polygon id="Fill-27" fill="#FFFFFF" mask="url(#mask-2)" points="15 12 16 12 16 11 15 11"></polygon>
            <polygon id="Fill-28" fill="#FFFFFF" mask="url(#mask-2)" points="13 12 14 12 14 11 13 11"></polygon>
            <polygon id="Fill-29" fill="#FFFFFF" mask="url(#mask-2)" points="11 12 12 12 12 11 11 11"></polygon>
            <polygon id="Fill-30" fill="#FFFFFF" mask="url(#mask-2)" points="9 12 10 12 10 11 9 11"></polygon>
            <polygon id="Fill-31" fill="#FFFFFF" mask="url(#mask-2)" points="14 11 15 11 15 10 14 10"></polygon>
            <polygon id="Fill-32" fill="#FFFFFF" mask="url(#mask-2)" points="12 11 13 11 13 10 12 10"></polygon>
            <polygon id="Fill-33" fill="#FFFFFF" mask="url(#mask-2)" points="10 11 11 11 11 10 10 10"></polygon>
            <polygon id="Fill-34" fill="#FFFFFF" mask="url(#mask-2)" points="8 11 9 11 9 10 8 10"></polygon>
            <polygon id="Fill-35" fill="#FFFFFF" mask="url(#mask-2)" points="15 10 16 10 16 9 15 9"></polygon>
            <polygon id="Fill-36" fill="#FFFFFF" mask="url(#mask-2)" points="13 10 14 10 14 9 13 9"></polygon>
            <polygon id="Fill-37" fill="#FFFFFF" mask="url(#mask-2)" points="11 10 12 10 12 9 11 9"></polygon>
            <polygon id="Fill-38" fill="#FFFFFF" mask="url(#mask-2)" points="9 10 10 10 10 9 9 9"></polygon>
            <polygon id="Fill-39" fill="#FFFFFF" mask="url(#mask-2)" points="6 9 7 9 7 8 6 8"></polygon>
            <polygon id="Fill-40" fill="#FFFFFF" mask="url(#mask-2)" points="4 9 5 9 5 8 4 8"></polygon>
            <polygon id="Fill-41" fill="#FFFFFF" mask="url(#mask-2)" points="2 9 3 9 3 8 2 8"></polygon>
            <polygon id="Fill-42" fill="#FFFFFF" mask="url(#mask-2)" points="14 9 15 9 15 8 14 8"></polygon>
            <polygon id="Fill-43" fill="#FFFFFF" mask="url(#mask-2)" points="8 7 9 7 9 6 8 6"></polygon>
            <polygon id="Fill-44" fill="#FFFFFF" mask="url(#mask-2)" points="8 5 9 5 9 4 8 4"></polygon>
            <polygon id="Fill-45" fill="#FFFFFF" mask="url(#mask-2)" points="8 3 9 3 9 2 8 2"></polygon>
            <polygon id="Fill-46" fill="#FFFFFF" mask="url(#mask-2)" points="12 9 13 9 13 8 12 8"></polygon>
            <polygon id="Fill-47" fill="#FFFFFF" mask="url(#mask-2)" points="10 9 11 9 11 8 10 8"></polygon>
            <polygon id="Fill-48" fill="#FFFFFF" mask="url(#mask-2)" points="8 9 9 9 9 8 8 8"></polygon>
        </g>
    </g>
</svg>