<?xml version="1.0" encoding="UTF-8"?>
<svg width="16px" height="16px" viewBox="0 0 16 16" version="1.1" xmlns="http://www.w3.org/2000/svg" xmlns:xlink="http://www.w3.org/1999/xlink">
    <!-- Generator: Sketch 49.1 (51147) - http://www.bohemiancoding.com/sketch -->
    <title>request2</title>
    <desc>Created with Sketch.</desc>
    <defs></defs>
    <g id="request2" stroke="none" stroke-width="1" fill="none" fill-rule="evenodd">
        <g id="Page-1">
            <path d="M0.5,10.5 L10.5,10.5" id="Stroke-2" stroke="#FFFFFF" stroke-linecap="round"></path>
            <path d="M5.5,5.5 L5.5,15.5" id="Stroke-4" stroke="#FFFFFF" stroke-linecap="round"></path>
            <path d="M13,10.5 C13,10.776 12.776,11 12.5,11 C12.224,11 12,10.776 12,10.5 C12,10.224 12.224,10 12.5,10 C12.776,10 13,10.224 13,10.5" id="Fill-6" fill="#FFFFFF"></path>
            <path d="M9.5,3.5 C9.5,1.665 11.147,0.215 13.044,0.548 C14.25,0.76 15.24,1.75 15.452,2.956 C15.689,4.311 15.018,5.538 13.946,6.129 C13.091,6.601 12.5,7.437 12.5,8.413 L12.5,8.5" id="Stroke-8" stroke="#FFFFFF" stroke-linecap="round" stroke-linejoin="round"></path>
        </g>
    </g>
</svg>