<?xml version="1.0" encoding="UTF-8"?>
<svg width="16px" height="16px" viewBox="0 0 16 16" version="1.1" xmlns="http://www.w3.org/2000/svg" xmlns:xlink="http://www.w3.org/1999/xlink">
    <!-- Generator: Sketch 49.1 (51147) - http://www.bohemiancoding.com/sketch -->
    <title>request3</title>
    <desc>Created with Sketch.</desc>
    <defs></defs>
    <g id="request3" stroke="none" stroke-width="1" fill="none" fill-rule="evenodd">
        <g id="Page-1">
            <g id="Group-12">
                <path d="M13,11.5 C13,11.776 12.776,12 12.5,12 C12.224,12 12,11.776 12,11.5 C12,11.224 12.224,11 12.5,11 C12.776,11 13,11.224 13,11.5" id="Fill-2" fill="#FFFFFF"></path>
                <path d="M0.5,2.5 L6.5,2.5" id="Stroke-4" stroke="#FFFFFF" stroke-linecap="round" stroke-linejoin="round"></path>
                <path d="M0.5,14.5 L14.5,14.5" id="Stroke-6" stroke="#FFFFFF" stroke-linecap="round" stroke-linejoin="round"></path>
                <path d="M0.5,8.5 L9.5,8.5" id="Stroke-8" stroke="#FFFFFF" stroke-linecap="round" stroke-linejoin="round"></path>
                <path d="M9.5,3.5 C9.5,1.665 11.147,0.215 13.044,0.548 C14.25,0.76 15.24,1.75 15.452,2.956 C15.712,4.434 14.889,5.76 13.646,6.273 C12.931,6.569 12.5,7.307 12.5,8.08 L12.5,8.5" id="Stroke-10" stroke="#FFFFFF" stroke-linecap="round" stroke-linejoin="round"></path>
            </g>
        </g>
    </g>
</svg>