<?xml version="1.0" encoding="UTF-8"?>
<svg width="16px" height="16px" viewBox="0 0 16 16" version="1.1" xmlns="http://www.w3.org/2000/svg" xmlns:xlink="http://www.w3.org/1999/xlink">
    <!-- Generator: Sketch 49.1 (51147) - http://www.bohemiancoding.com/sketch -->
    <title>settings</title>
    <desc>Created with Sketch.</desc>
    <defs></defs>
    <g id="settings" stroke="none" stroke-width="1" fill="none" fill-rule="evenodd">
        <g id="Page-1" stroke="#FFFFFF">
            <path d="M13.9287,8 C13.9287,7.642 13.8917,7.292 13.8307,6.951 L15.1847,5.854 C14.8447,4.716 14.2407,3.694 13.4457,2.854 L11.8247,3.474 C11.2917,3.022 10.6777,2.668 10.0067,2.427 L9.7347,0.71 C9.1767,0.577 8.5977,0.5 7.9997,0.5 C7.4027,0.5 6.8237,0.577 6.2657,0.71 L5.9927,2.427 C5.3227,2.668 4.7077,3.022 4.1747,3.474 L2.5547,2.854 C1.7597,3.694 1.1557,4.716 0.8157,5.854 L2.1687,6.951 C2.1087,7.292 2.0717,7.642 2.0717,8 C2.0717,8.358 2.1087,8.708 2.1687,9.049 L0.8157,10.146 C1.1557,11.284 1.7597,12.306 2.5547,13.146 L4.1747,12.526 C4.7077,12.978 5.3237,13.332 5.9927,13.573 L6.2657,15.29 C6.8237,15.423 7.4027,15.5 7.9997,15.5 C8.5977,15.5 9.1767,15.423 9.7347,15.29 L10.0067,13.573 C10.6767,13.332 11.2917,12.978 11.8247,12.526 L13.4457,13.146 C14.2407,12.306 14.8447,11.284 15.1847,10.146 L13.8307,9.049 C13.8917,8.708 13.9287,8.358 13.9287,8 Z" id="Stroke-3"></path>
            <path d="M10,8 C10,9.104 9.104,10 8,10 C6.896,10 6,9.104 6,8 C6,6.896 6.896,6 8,6 C9.104,6 10,6.896 10,8 Z" id="Stroke-5"></path>
        </g>
    </g>
</svg>